<?xml version="1.0" encoding="UTF-8" standalone="no"?>
<!-- Uploaded to: SVG Repo, www.svgrepo.com, Generator: SVG Repo Mixer Tools -->

<svg
   width="128"
   height="128"
   viewBox="0 0 163.84 163.84"
   class="icon"
   version="1.1"
   id="svg6"
   sodipodi:docname="io.github.kyuyrii.leyline.svg"
   inkscape:version="1.2.2 (b0a8486541, 2022-12-01)"
   xmlns:inkscape="http://www.inkscape.org/namespaces/inkscape"
   xmlns:sodipodi="http://sodipodi.sourceforge.net/DTD/sodipodi-0.dtd"
   xmlns="http://www.w3.org/2000/svg"
   xmlns:svg="http://www.w3.org/2000/svg">
  <defs
     id="defs10" />
  <sodipodi:namedview
     id="namedview8"
     pagecolor="#ffffff"
     bordercolor="#000000"
     borderopacity="0.25"
     inkscape:showpageshadow="2"
     inkscape:pageopacity="0.0"
     inkscape:pagecheckerboard="0"
     inkscape:deskcolor="#d1d1d1"
     showgrid="false"
     inkscape:zoom="0.75625"
     inkscape:cx="399.33884"
     inkscape:cy="401.32231"
     inkscape:window-width="1534"
     inkscape:window-height="831"
     inkscape:window-x="0"
     inkscape:window-y="0"
     inkscape:window-maximized="1"
     inkscape:current-layer="svg6" />
  <path
     d="m 134.89206,62.220395 c -5.92411,2.418797 -11.87409,7.109795 -18.56135,13.585786 -2.93187,-3.043975 -6.01896,-6.342333 -9.3087,-9.864893 C 99.636278,58.038165 91.508952,49.34171 81.932934,40.041634 l -0.0086,0.02587 -0.0086,-0.03449 c -9.037068,8.76544 -16.776353,16.996243 -23.821473,24.541507 l -0.01293,0.0043 0.0043,0.0043 A 26142.613,26142.613 0 0 0 75.763066,81.92 L 64.246838,93.212026 a 152.41863,152.41863 0 0 0 -1.121011,-1.19862 C 49.294282,77.211755 39.110333,66.342266 29.012614,62.211773 21.933002,65.475638 17.310989,72.822568 17.263562,81.988986 c 0.04743,9.140547 4.643571,16.392622 11.688691,19.630614 5.924109,-2.418792 11.874088,-7.109789 18.561347,-13.585781 2.931874,3.043975 6.018965,6.342333 9.313011,9.864893 7.381423,7.903128 15.508749,16.599578 25.089077,25.899658 l 0.0086,-0.0259 0.0086,0.0345 c 9.03707,-8.76544 16.776354,-16.99624 23.821472,-24.541508 l 0.0129,-0.0043 -0.004,-0.0043 C 99.541422,93.14304 92.181558,85.929768 88.085558,81.92 l 11.516228,-11.292026 1.125324,1.19862 c 13.83154,14.801651 24.01118,25.67114 34.11321,29.801636 7.07961,-3.263868 11.70163,-10.61511 11.74905,-19.777216 -0.056,-9.140547 -4.65219,-16.392622 -11.69731,-19.630619 z"
     fill="#FF8787"
     id="path2"
     style="fill:#ca9ee6;fill-opacity:1;stroke-width:0.16" />
  <path
     d="m 94.854736,163.84 h -8.623157 v -12.93474 a 4.3158906,4.3158906 0 0 0 -8.623158,0 V 163.84 h -8.623159 v -12.93474 c 0,-7.13135 5.803386,-12.93473 12.934738,-12.93473 7.131352,0 12.934736,5.80338 12.934736,12.93473 z m 0,-150.905263 V 0 h -8.623157 v 12.934737 c 0,2.37568 -1.935899,4.311578 -4.311579,4.311578 -2.37568,0 -4.311579,-1.935898 -4.311579,-4.311578 V 0 h -8.623159 v 12.934737 c 0,7.131351 5.803386,12.934737 12.934738,12.934737 7.131352,0 12.934736,-5.803386 12.934736,-12.934737 z M 163.84,81.988986 h -0.013 c -0.0647,12.45615 -8.54124,21.488904 -20.217,21.488904 -13.31416,0 -25.08045,-12.594117 -42.88728,-31.651296 L 99.601786,70.627974 88.081246,81.92 c 2.78528,2.729229 7.070989,6.924395 11.52054,11.292026 l 1.121014,-1.19862 c 1.3797,-1.478872 2.71629,-2.906004 4.03132,-4.302955 2.07818,2.168723 4.09169,4.186543 6.07933,6.122442 l -3.81144,4.070131 -1.26329,1.349523 a 2462.705,2462.705 0 0 1 10.02011,9.873513 c 6.57085,6.59672 6.57085,17.34117 -0.0173,23.98101 a 16.655629,16.655629 0 0 1 -11.80941,4.82465 17.815445,17.815445 0 0 1 -12.003437,-4.69531 434.52955,434.52955 0 0 1 -10.024421,-9.42942 c -3.173323,3.07847 -6.506173,6.22161 -10.024421,9.42942 a 17.815445,17.815445 0 0 1 -12.003437,4.69531 16.668565,16.668565 0 0 1 -11.813726,-4.82465 17.030736,17.030736 0 0 1 -0.01293,-23.98101 c 0.720034,-0.72003 1.918653,-1.9014 3.375966,-3.33716 1.901407,2.05231 3.871799,4.15205 5.893928,6.29922 -1.366769,1.34952 -2.483468,2.44897 -3.169009,3.13883 a 8.3773979,8.3773979 0 0 0 0.01293,11.78354 c 3.19488,3.17332 8.321347,3.12159 11.908581,-0.14659 a 422.53474,422.53474 0 0 0 9.701052,-9.1233 c -6.99338,-7.02788 -13.21499,-13.68064 -18.966635,-19.837576 -3.294046,-3.52256 -6.385449,-6.829542 -9.321635,-9.873517 -9.942501,9.627755 -18.26816,15.448383 -27.275048,15.448383 -11.6757554,0 -20.1566312,-9.032754 -20.21699328,-21.488904 H 0 L 0.00431152,81.92 0,81.851014 H 0.01293472 C 0.07760848,69.390552 8.5541726,60.362106 20.229928,60.362106 c 13.314157,0 25.080454,12.589809 42.887277,31.6513 l 1.121009,1.19862 L 75.754442,81.92 C 72.969162,79.190771 68.683453,74.995605 64.238214,70.627974 l -1.121009,1.19862 -4.031327,4.302955 a 248.56253,248.56253 0 0 0 -6.079326,-6.122442 l 3.811435,-4.070129 1.263293,-1.349525 A 2798.4994,2798.4994 0 0 1 48.061171,54.713938 c -6.570846,-6.596717 -6.570846,-17.341172 0.01725,-23.981004 a 16.655629,16.655629 0 0 1 11.809414,-4.824656 c 4.255528,0 8.562795,1.560791 12.003435,4.695309 3.52256,3.203504 6.855411,6.346645 10.028733,9.429424 3.173322,-3.078467 6.506173,-6.22592 10.024421,-9.429424 a 17.815445,17.815445 0 0 1 12.003436,-4.695309 c 4.31589,0 8.57142,1.60822 11.80941,4.824656 a 17.035048,17.035048 0 0 1 0.0172,23.981004 c -0.72004,0.720033 -1.91865,1.901404 -3.37597,3.337161 a 1215.7359,1215.7359 0 0 0 -5.89393,-6.299217 c 1.36677,-1.349524 2.48347,-2.448976 3.16901,-3.138829 a 8.3773979,8.3773979 0 0 0 -0.0129,-11.783546 c -3.19488,-3.173321 -8.32566,-3.121582 -11.912894,0.146594 -3.397525,3.095713 -6.622586,6.139689 -9.701053,9.123301 a 856.96942,856.96942 0 0 1 18.966637,19.837576 c 3.29404,3.52687 6.38113,6.82954 9.31732,9.873515 9.94681,-9.627755 18.27247,-15.448387 27.27936,-15.448387 11.67575,0 20.15662,9.028446 20.21699,21.488908 h 0.013 L 163.8357,81.92 Z M 20.229928,94.854736 c 6.109507,0 12.964918,-4.992808 21.195723,-12.94336 C 33.190534,73.952202 26.348059,68.985262 20.229928,68.985262 12.283688,68.985262 8.653339,75.676834 8.6274694,81.92 8.6533389,88.163166 12.288,94.854736 20.229928,94.854736 Z M 63.988142,58.296859 c 3.695024,-3.910603 7.61425,-7.985045 11.800792,-12.197457 A 422.53474,422.53474 0 0 0 66.087882,36.976101 C 62.500648,33.707925 57.374181,33.651874 54.174989,36.829507 a 8.3773979,8.3773979 0 0 0 -0.01293,11.783546 2590.3966,2590.3966 0 0 0 9.826088,9.683806 z m 35.863714,47.246281 c -3.695022,3.9106 -7.614248,7.98936 -11.80079,12.19746 3.078467,2.98361 6.303528,6.02759 9.701052,9.1233 3.587232,3.26818 8.713702,3.32423 11.912892,0.14659 3.23368,-3.25955 3.238,-8.54555 0.0129,-11.78354 a 2590.3966,2590.3966 0 0 0 -9.826084,-9.68381 z M 93.694922,99.498307 81.92,87.956211 70.145078,99.502619 C 73.831478,103.4046 77.74208,107.47473 81.92,111.66989 A 626.90358,626.90358 0 0 0 93.694922,99.498307 Z m 0,-35.156614 C 90.008522,60.435402 86.093608,56.365272 81.92,52.165794 77.74208,56.365272 73.835789,60.431091 70.145078,64.337381 74.702416,68.8128 79.113162,73.133002 81.92,75.883789 Z M 155.21253,81.92 c -0.0302,-6.243166 -3.66053,-12.934738 -11.60246,-12.934738 -6.11382,0 -12.96923,4.99281 -21.19141,12.94336 8.23081,7.959176 15.07328,12.926114 21.19141,12.926114 7.94193,0 11.57228,-6.69157 11.60246,-12.934736 z"
     fill="#231F20"
     id="path4"
     style="fill:#8caaee;fill-opacity:1;stroke-width:0.16" />
</svg>
